<mxfile host="app.diagrams.net" modified="2024-05-23T16:31:48.795Z" agent="Mozilla/5.0 (Windows NT 10.0; Win64; x64) AppleWebKit/537.36 (KHTML, like Gecko) Chrome/124.0.0.0 Safari/537.36" etag="k2CWIamijk7zQx2Xztbh" version="24.4.6" type="github">
  <diagram name="Страница — 1" id="CZK2arjifiJRoZW8Agyg">
    <mxGraphModel dx="2704" dy="565" grid="1" gridSize="10" guides="1" tooltips="1" connect="1" arrows="1" fold="1" page="1" pageScale="1" pageWidth="827" pageHeight="1169" math="0" shadow="0">
      <root>
        <mxCell id="0" />
        <mxCell id="1" parent="0" />
        <mxCell id="rmZIUKGWzZladaQl_O9c-1" value="UML-діаграма" style="rounded=0;whiteSpace=wrap;html=1;" parent="1" vertex="1">
          <mxGeometry x="-827" width="90" height="30" as="geometry" />
        </mxCell>
        <mxCell id="rmZIUKGWzZladaQl_O9c-2" value="User" style="rounded=0;whiteSpace=wrap;html=1;" parent="1" vertex="1">
          <mxGeometry x="-827" y="30" width="130" height="30" as="geometry" />
        </mxCell>
        <mxCell id="rmZIUKGWzZladaQl_O9c-3" value="+name" style="rounded=0;whiteSpace=wrap;html=1;" parent="1" vertex="1">
          <mxGeometry x="-827" y="60" width="130" height="30" as="geometry" />
        </mxCell>
        <mxCell id="rmZIUKGWzZladaQl_O9c-4" value="+surname" style="rounded=0;whiteSpace=wrap;html=1;" parent="1" vertex="1">
          <mxGeometry x="-827" y="90" width="130" height="30" as="geometry" />
        </mxCell>
        <mxCell id="rmZIUKGWzZladaQl_O9c-6" style="edgeStyle=orthogonalEdgeStyle;rounded=0;orthogonalLoop=1;jettySize=auto;html=1;exitX=0.5;exitY=1;exitDx=0;exitDy=0;" parent="1" source="rmZIUKGWzZladaQl_O9c-4" target="rmZIUKGWzZladaQl_O9c-4" edge="1">
          <mxGeometry relative="1" as="geometry" />
        </mxCell>
        <mxCell id="rmZIUKGWzZladaQl_O9c-7" value="-is_role" style="rounded=0;whiteSpace=wrap;html=1;" parent="1" vertex="1">
          <mxGeometry x="-827" y="120" width="130" height="30" as="geometry" />
        </mxCell>
        <mxCell id="rmZIUKGWzZladaQl_O9c-8" value="+get_full name&lt;div&gt;&lt;br&gt;&lt;/div&gt;" style="rounded=0;whiteSpace=wrap;html=1;" parent="1" vertex="1">
          <mxGeometry x="-827" y="150" width="130" height="30" as="geometry" />
        </mxCell>
        <mxCell id="rmZIUKGWzZladaQl_O9c-12" value="Наслідування класів" style="rounded=0;whiteSpace=wrap;html=1;" parent="1" vertex="1">
          <mxGeometry x="-510" width="120" height="40" as="geometry" />
        </mxCell>
        <mxCell id="rmZIUKGWzZladaQl_O9c-14" value="User" style="rounded=0;whiteSpace=wrap;html=1;" parent="1" vertex="1">
          <mxGeometry x="-520" y="50" width="130" height="30" as="geometry" />
        </mxCell>
        <mxCell id="rmZIUKGWzZladaQl_O9c-15" value="+name" style="rounded=0;whiteSpace=wrap;html=1;" parent="1" vertex="1">
          <mxGeometry x="-520" y="80" width="130" height="30" as="geometry" />
        </mxCell>
        <mxCell id="rmZIUKGWzZladaQl_O9c-16" value="+surname" style="rounded=0;whiteSpace=wrap;html=1;" parent="1" vertex="1">
          <mxGeometry x="-520" y="110" width="130" height="40" as="geometry" />
        </mxCell>
        <mxCell id="rmZIUKGWzZladaQl_O9c-18" value="-is_role" style="rounded=0;whiteSpace=wrap;html=1;" parent="1" vertex="1">
          <mxGeometry x="-520" y="140" width="130" height="30" as="geometry" />
        </mxCell>
        <mxCell id="rmZIUKGWzZladaQl_O9c-19" value="+get_full name&lt;div&gt;&lt;br&gt;&lt;/div&gt;" style="rounded=0;whiteSpace=wrap;html=1;" parent="1" vertex="1">
          <mxGeometry x="-520" y="170" width="130" height="30" as="geometry" />
        </mxCell>
        <mxCell id="rmZIUKGWzZladaQl_O9c-23" style="edgeStyle=orthogonalEdgeStyle;rounded=0;orthogonalLoop=1;jettySize=auto;html=1;" parent="1" edge="1">
          <mxGeometry relative="1" as="geometry">
            <mxPoint x="-640" y="300" as="targetPoint" />
            <mxPoint x="-640" y="300" as="sourcePoint" />
          </mxGeometry>
        </mxCell>
        <mxCell id="rmZIUKGWzZladaQl_O9c-25" value="Speaker" style="rounded=0;whiteSpace=wrap;html=1;" parent="1" vertex="1">
          <mxGeometry x="-660" y="270" width="120" height="30" as="geometry" />
        </mxCell>
        <mxCell id="rmZIUKGWzZladaQl_O9c-28" value="+gives_inform" style="rounded=0;whiteSpace=wrap;html=1;" parent="1" vertex="1">
          <mxGeometry x="-660" y="300" width="120" height="20" as="geometry" />
        </mxCell>
        <mxCell id="rmZIUKGWzZladaQl_O9c-29" value="+get_salary" style="rounded=0;whiteSpace=wrap;html=1;" parent="1" vertex="1">
          <mxGeometry x="-660" y="320" width="120" height="30" as="geometry" />
        </mxCell>
        <mxCell id="rmZIUKGWzZladaQl_O9c-71" style="edgeStyle=orthogonalEdgeStyle;rounded=0;orthogonalLoop=1;jettySize=auto;html=1;exitX=0.25;exitY=0;exitDx=0;exitDy=0;" parent="1" source="rmZIUKGWzZladaQl_O9c-30" edge="1">
          <mxGeometry relative="1" as="geometry">
            <mxPoint x="-340" y="290" as="targetPoint" />
          </mxGeometry>
        </mxCell>
        <mxCell id="rmZIUKGWzZladaQl_O9c-31" value="-get_experience" style="rounded=0;whiteSpace=wrap;html=1;" parent="1" vertex="1">
          <mxGeometry x="-360" y="330" width="120" height="30" as="geometry" />
        </mxCell>
        <mxCell id="rmZIUKGWzZladaQl_O9c-39" value="відношення між об&#39;єктами" style="rounded=0;whiteSpace=wrap;html=1;" parent="1" vertex="1">
          <mxGeometry x="-780" y="380" width="167" height="30" as="geometry" />
        </mxCell>
        <mxCell id="rmZIUKGWzZladaQl_O9c-40" value="trainer" style="rounded=0;whiteSpace=wrap;html=1;" parent="1" vertex="1">
          <mxGeometry x="-827" y="420" width="120" height="30" as="geometry" />
        </mxCell>
        <mxCell id="rmZIUKGWzZladaQl_O9c-41" value="" style="endArrow=classic;html=1;rounded=0;exitX=1;exitY=0.5;exitDx=0;exitDy=0;" parent="1" source="rmZIUKGWzZladaQl_O9c-40" edge="1">
          <mxGeometry width="50" height="50" relative="1" as="geometry">
            <mxPoint x="-690" y="440" as="sourcePoint" />
            <mxPoint x="-660" y="435" as="targetPoint" />
            <Array as="points" />
          </mxGeometry>
        </mxCell>
        <mxCell id="rmZIUKGWzZladaQl_O9c-43" value="athlete" style="rounded=0;whiteSpace=wrap;html=1;" parent="1" vertex="1">
          <mxGeometry x="-660" y="420" width="120" height="30" as="geometry" />
        </mxCell>
        <mxCell id="rmZIUKGWzZladaQl_O9c-44" value="композиція" style="rounded=0;whiteSpace=wrap;html=1;" parent="1" vertex="1">
          <mxGeometry x="-770" y="510" width="127" height="30" as="geometry" />
        </mxCell>
        <mxCell id="rmZIUKGWzZladaQl_O9c-46" value="apartment" style="rounded=0;whiteSpace=wrap;html=1;" parent="1" vertex="1">
          <mxGeometry x="-660" y="555" width="120" height="30" as="geometry" />
        </mxCell>
        <mxCell id="rmZIUKGWzZladaQl_O9c-47" value="1" style="endArrow=open;html=1;endSize=12;startArrow=diamondThin;startSize=14;startFill=1;edgeStyle=orthogonalEdgeStyle;align=left;verticalAlign=bottom;rounded=0;" parent="1" edge="1">
          <mxGeometry x="-1" y="3" relative="1" as="geometry">
            <mxPoint x="-710" y="570" as="sourcePoint" />
            <mxPoint x="-660" y="570" as="targetPoint" />
          </mxGeometry>
        </mxCell>
        <mxCell id="rmZIUKGWzZladaQl_O9c-48" value="house" style="rounded=0;whiteSpace=wrap;html=1;" parent="1" vertex="1">
          <mxGeometry x="-830" y="555" width="120" height="30" as="geometry" />
        </mxCell>
        <mxCell id="rmZIUKGWzZladaQl_O9c-49" value="агрегація" style="rounded=0;whiteSpace=wrap;html=1;" parent="1" vertex="1">
          <mxGeometry x="-370" y="420" width="127" height="30" as="geometry" />
        </mxCell>
        <mxCell id="rmZIUKGWzZladaQl_O9c-50" value="gym" style="rounded=0;whiteSpace=wrap;html=1;" parent="1" vertex="1">
          <mxGeometry x="-460" y="470" width="120" height="30" as="geometry" />
        </mxCell>
        <mxCell id="rmZIUKGWzZladaQl_O9c-51" value="athletes" style="rounded=0;whiteSpace=wrap;html=1;" parent="1" vertex="1">
          <mxGeometry x="-260" y="470" width="120" height="30" as="geometry" />
        </mxCell>
        <mxCell id="rmZIUKGWzZladaQl_O9c-58" value="1" style="endArrow=open;html=1;endSize=12;startArrow=diamondThin;startSize=14;startFill=0;edgeStyle=orthogonalEdgeStyle;align=left;verticalAlign=bottom;rounded=0;" parent="1" edge="1">
          <mxGeometry x="-1" y="3" relative="1" as="geometry">
            <mxPoint x="-340" y="484.5" as="sourcePoint" />
            <mxPoint x="-260" y="484.5" as="targetPoint" />
          </mxGeometry>
        </mxCell>
        <mxCell id="rmZIUKGWzZladaQl_O9c-67" value="Extends" style="endArrow=block;endSize=16;endFill=0;html=1;rounded=0;entryX=0.5;entryY=0;entryDx=0;entryDy=0;" parent="1" edge="1">
          <mxGeometry x="1" y="57" width="160" relative="1" as="geometry">
            <mxPoint x="-620" y="240" as="sourcePoint" />
            <mxPoint x="-620" y="270" as="targetPoint" />
            <mxPoint x="40" y="17" as="offset" />
          </mxGeometry>
        </mxCell>
        <mxCell id="rmZIUKGWzZladaQl_O9c-68" value="" style="endArrow=none;html=1;edgeStyle=orthogonalEdgeStyle;rounded=0;" parent="1" edge="1">
          <mxGeometry relative="1" as="geometry">
            <mxPoint x="-620" y="240" as="sourcePoint" />
            <mxPoint x="-310" y="250" as="targetPoint" />
            <Array as="points">
              <mxPoint x="-620" y="241" />
              <mxPoint x="-309" y="241" />
            </Array>
          </mxGeometry>
        </mxCell>
        <mxCell id="rmZIUKGWzZladaQl_O9c-69" value="parent" style="edgeLabel;resizable=0;html=1;align=left;verticalAlign=bottom;" parent="rmZIUKGWzZladaQl_O9c-68" connectable="0" vertex="1">
          <mxGeometry x="-1" relative="1" as="geometry" />
        </mxCell>
        <mxCell id="rmZIUKGWzZladaQl_O9c-70" value="child" style="edgeLabel;resizable=0;html=1;align=right;verticalAlign=bottom;rotation=90;" parent="rmZIUKGWzZladaQl_O9c-68" connectable="0" vertex="1">
          <mxGeometry x="1" relative="1" as="geometry">
            <mxPoint y="10" as="offset" />
          </mxGeometry>
        </mxCell>
        <mxCell id="rmZIUKGWzZladaQl_O9c-72" value="" style="edgeStyle=orthogonalEdgeStyle;rounded=0;orthogonalLoop=1;jettySize=auto;html=1;exitX=0.25;exitY=0;exitDx=0;exitDy=0;" parent="1" source="rmZIUKGWzZladaQl_O9c-31" target="rmZIUKGWzZladaQl_O9c-30" edge="1">
          <mxGeometry relative="1" as="geometry">
            <mxPoint x="-340" y="290" as="targetPoint" />
            <mxPoint x="-290" y="300" as="sourcePoint" />
          </mxGeometry>
        </mxCell>
        <mxCell id="rmZIUKGWzZladaQl_O9c-30" value="+get_inform" style="rounded=0;whiteSpace=wrap;html=1;" parent="1" vertex="1">
          <mxGeometry x="-360" y="300" width="120" height="30" as="geometry" />
        </mxCell>
        <mxCell id="rmZIUKGWzZladaQl_O9c-77" style="edgeStyle=orthogonalEdgeStyle;rounded=0;orthogonalLoop=1;jettySize=auto;html=1;exitX=0.5;exitY=1;exitDx=0;exitDy=0;" parent="1" source="rmZIUKGWzZladaQl_O9c-31" target="rmZIUKGWzZladaQl_O9c-31" edge="1">
          <mxGeometry relative="1" as="geometry" />
        </mxCell>
        <mxCell id="rmZIUKGWzZladaQl_O9c-78" value="Spectator" style="rounded=0;whiteSpace=wrap;html=1;" parent="1" vertex="1">
          <mxGeometry x="-360" y="270" width="120" height="30" as="geometry" />
        </mxCell>
        <mxCell id="GnYbX8LPIg0lEVLMLoaF-6" value="Extends" style="endArrow=block;endSize=16;endFill=0;html=1;rounded=0;edgeStyle=orthogonalEdgeStyle;entryX=0.5;entryY=0;entryDx=0;entryDy=0;" parent="1" target="rmZIUKGWzZladaQl_O9c-78" edge="1">
          <mxGeometry width="160" relative="1" as="geometry">
            <mxPoint x="-430" y="240" as="sourcePoint" />
            <mxPoint x="-270" y="240" as="targetPoint" />
          </mxGeometry>
        </mxCell>
        <mxCell id="GnYbX8LPIg0lEVLMLoaF-7" value="Extends" style="endArrow=block;endSize=16;endFill=0;html=1;rounded=0;exitX=0.5;exitY=1;exitDx=0;exitDy=0;" parent="1" source="rmZIUKGWzZladaQl_O9c-19" edge="1">
          <mxGeometry width="160" relative="1" as="geometry">
            <mxPoint x="-420" y="290" as="sourcePoint" />
            <mxPoint x="-455" y="240" as="targetPoint" />
          </mxGeometry>
        </mxCell>
      </root>
    </mxGraphModel>
  </diagram>
</mxfile>
